<svg id="_0518_data_processing" xmlns="http://www.w3.org/2000/svg" viewBox="0 0 500 500" data-imageid="data-processing-1-76" imageName="Procesamiento de datos 1" class="illustrations_image" style="width: 151px;"><defs><style>.cls-1_data-processing-1-76,.cls-2_data-processing-1-76,.cls-3_data-processing-1-76,.cls-4_data-processing-1-76{fill:#fff;}.cls-5_data-processing-1-76{fill:#f4a28c;}.cls-6_data-processing-1-76{opacity:.03;}.cls-6_data-processing-1-76,.cls-7_data-processing-1-76{fill:#000001;}.cls-8_data-processing-1-76{fill:#e6e6e6;}.cls-2_data-processing-1-76{opacity:.29;}.cls-3_data-processing-1-76{opacity:.44;}.cls-9_data-processing-1-76{opacity:.58;}.cls-9_data-processing-1-76,.cls-10_data-processing-1-76,.cls-11_data-processing-1-76{fill:#68e1fd;}.cls-4_data-processing-1-76{opacity:.46;}.cls-12_data-processing-1-76{fill:#24285b;}.cls-7_data-processing-1-76{opacity:.08;}.cls-10_data-processing-1-76{opacity:.73;}.cls-13_data-processing-1-76{fill:#ffd200;}</style></defs><ellipse id="bg_data-processing-1-76" class="cls-6_data-processing-1-76" cx="306.64" cy="459.97" rx="159.07" ry="17.9"/><g id="plant_data-processing-1-76"><path class="cls-9_data-processing-1-76 targetColor" d="m201.19,444.29s-12.22-3.34-14.88-14.71c0,0,18.93-3.83,19.47,15.72l-4.59-1.01Z" style="fill: rgb(104, 225, 253);"/><path class="cls-10_data-processing-1-76 targetColor" d="m202.69,443.08s-8.54-13.5-1.02-26.12c0,0,14.4,9.14,8,26.15l-6.98-.03Z" style="fill: rgb(104, 225, 253);"/><path class="cls-11_data-processing-1-76 targetColor" d="m204.89,443.09s4.51-14.25,18.15-16.95c0,0,2.56,9.26-8.83,16.99l-9.32-.04Z" style="fill: rgb(104, 225, 253);"/><polygon class="cls-12_data-processing-1-76" points="196.03 442.77 198.51 459.72 214.11 459.79 216.41 442.86 196.03 442.77"/></g><g id="cube_data-processing-1-76"><rect class="cls-12_data-processing-1-76" x="364.64" y="114.8" width="126.49" height="141.5" transform="translate(855.78 371.1) rotate(-180)"/><polygon class="cls-11_data-processing-1-76 targetColor" points="449.04 151.03 427.89 138.83 406.74 151.03 406.74 175.45 427.89 187.66 449.04 175.45 449.04 151.03" style="fill: rgb(104, 225, 253);"/><polygon class="cls-7_data-processing-1-76" points="406.74 151.03 427.89 163.24 427.89 187.66 406.74 175.45 406.74 151.03"/><polygon class="cls-3_data-processing-1-76" points="427.89 163.24 449.04 151.03 427.89 138.83 406.74 151.03 427.89 163.24"/><rect class="cls-1_data-processing-1-76" x="393.98" y="212.99" width="67.38" height="11.24"/><rect class="cls-11_data-processing-1-76 targetColor" x="393.98" y="212.99" width="48.51" height="11.24" style="fill: rgb(104, 225, 253);"/></g><g id="cloud_data-processing-1-76"><rect class="cls-12_data-processing-1-76" x="57.97" y="31.75" width="256.7" height="130.87"/><path class="cls-13_data-processing-1-76" d="m161.16,101.42c-.36,0-.72.02-1.08.06,0-.17.01-.34.01-.51,0-8.47-6.87-15.34-15.34-15.34-.22,0-.43,0-.65.02-.31-9.87-8.4-17.77-18.34-17.77s-18.36,8.22-18.36,18.36c0,1.38.16,2.72.44,4.01-8.2.3-14.76,7.05-14.76,15.32s6.87,15.34,15.34,15.34h52.73c5.38,0,9.75-4.36,9.75-9.75s-4.36-9.75-9.75-9.75Z"/><rect class="cls-1_data-processing-1-76" x="197.01" y="75.34" width="83.43" height="12.21"/><rect class="cls-2_data-processing-1-76" x="197.01" y="103.68" width="83.43" height="12.21"/></g><path id="line_data-processing-1-76" class="cls-8_data-processing-1-76" d="m94.73,284.25c-.48,0-.97,0-1.46-.02h-.37c-.42-.03-.75-.39-.74-.81.01-.42.4-.73.79-.74h.37c1.44.06,2.82.03,4.14-.06.45-.01.79.29.82.71.03.42-.29.79-.71.82-.91.06-1.86.09-2.83.09Zm-16.97-2.08c-.06,0-.12,0-.18-.02-1.49-.35-3-.76-4.48-1.21-.41-.12-.64-.55-.51-.96.12-.4.55-.64.96-.51,1.45.44,2.93.84,4.39,1.19.41.1.67.51.57.92-.08.35-.4.59-.75.59Zm34.02-2.79c-.24,0-.48-.11-.63-.32-.25-.34-.17-.82.18-1.07,1.18-.84,2.31-1.81,3.36-2.89.3-.3.78-.31,1.08-.01.3.3.31.78.01,1.08-1.12,1.15-2.32,2.18-3.57,3.07-.13.1-.29.14-.44.14Zm-52.59-4.3c-.12,0-.25-.03-.36-.09-1.36-.74-2.71-1.52-4.02-2.32-.36-.22-.47-.7-.25-1.06s.69-.47,1.06-.25c1.28.79,2.61,1.56,3.95,2.28.37.2.51.67.31,1.04-.14.26-.4.4-.68.4Zm-16.22-11.51c-.18,0-.37-.07-.51-.2-1.13-1.02-2.26-2.1-3.36-3.2-.3-.3-.3-.79,0-1.08s.79-.3,1.08,0c1.08,1.08,2.2,2.14,3.31,3.14.31.28.34.77.05,1.08-.15.17-.36.25-.57.25Zm80.28-.14c-.1,0-.2-.02-.3-.06-.39-.16-.58-.61-.41-1,.55-1.31,1.08-2.71,1.64-4.26.14-.4.58-.6.98-.46.4.14.61.58.46.98-.57,1.58-1.11,3-1.67,4.34-.12.3-.41.47-.71.47Zm-93.54-14.71c-.24,0-.47-.11-.62-.32-.89-1.22-1.77-2.51-2.63-3.81-.23-.36-.14-.83.22-1.06.36-.23.83-.13,1.06.22.85,1.29,1.72,2.55,2.6,3.76.25.34.17.82-.17,1.07-.14.1-.29.15-.45.15Zm99.85-4.24c-.08,0-.15-.01-.23-.03-.4-.13-.63-.56-.5-.96.46-1.47.93-2.95,1.41-4.41.13-.4.57-.62.97-.49.4.13.62.57.49.97-.48,1.45-.95,2.91-1.4,4.38-.1.33-.41.54-.73.54Zm-109.96-12.93c-.29,0-.56-.16-.7-.44-.66-1.4-1.29-2.82-1.88-4.24-.16-.39.02-.84.41-1,.39-.16.84.02,1,.41.59,1.4,1.21,2.79,1.86,4.18.18.38.01.84-.37,1.02-.1.05-.22.07-.33.07Zm117.35-5.57c-.13,0-.26-.03-.38-.1-.37-.21-.5-.68-.29-1.05.8-1.4,1.64-2.73,2.51-3.94.25-.34.73-.42,1.07-.18.34.25.42.73.18,1.07-.84,1.17-1.65,2.45-2.42,3.81-.14.25-.4.39-.67.39Zm-124.15-13.16c-.34,0-.65-.23-.74-.57-.39-1.49-.75-3.01-1.07-4.51-.09-.41.17-.82.59-.91.42-.08.82.18.91.59.32,1.48.67,2.98,1.06,4.44.11.41-.14.83-.55.94-.07.02-.13.03-.19.03Zm138-.68c-.28,0-.55-.15-.69-.42-.19-.38-.04-.84.34-1.03,1.36-.69,2.81-1.29,4.32-1.8.4-.14.84.08.97.48.14.4-.08.84-.48.97-1.44.49-2.82,1.06-4.12,1.72-.11.06-.23.08-.34.08Zm19.8-3.77h-.52c-.42-.02-.76-.37-.75-.79s.35-.8.78-.75h.52c.42.03.75.39.74.81-.01.42-.36.74-.77.74Zm-160.88-15.22c-.41,0-.75-.32-.77-.73-.06-1.31-.09-2.6-.09-3.89v-.75c0-.42.35-.76.77-.76h0c.42,0,.76.35.76.77v.74c0,1.26.02,2.54.08,3.82.02.42-.31.78-.73.8-.01,0-.02,0-.04,0Zm1.39-19.85s-.09,0-.14-.01c-.42-.08-.69-.48-.62-.89.28-1.51.6-3.04.95-4.54.1-.41.51-.67.92-.57.41.1.67.51.57.92-.35,1.48-.66,2.98-.93,4.47-.07.37-.39.63-.75.63Zm5.56-19.12c-.09,0-.19-.02-.28-.05-.39-.16-.59-.6-.43-1,.58-1.46,1.18-2.88,1.8-4.27.17-.39.63-.56,1.01-.39.39.17.56.63.39,1.01-.61,1.37-1.2,2.78-1.78,4.22-.12.3-.41.48-.71.48Zm8.9-17.84c-.13,0-.27-.04-.4-.11-.36-.22-.48-.69-.26-1.05.83-1.37,1.65-2.68,2.47-3.92.23-.35.71-.45,1.06-.22.36.23.45.71.22,1.06-.8,1.23-1.62,2.52-2.44,3.88-.14.24-.4.37-.66.37Zm11.61-16.23c-.18,0-.35-.06-.5-.18-.32-.27-.36-.76-.09-1.08,1.9-2.24,3.08-3.43,3.13-3.48.3-.3.78-.31,1.08,0,.3.3.3.78,0,1.08-.01.01-1.19,1.21-3.05,3.4-.15.18-.37.27-.59.27Z"/><g id="person_data-processing-1-76"><rect class="cls-13_data-processing-1-76" x="190.21" y="191.39" width="21.45" height="39.03"/><path class="cls-5_data-processing-1-76" d="m285.2,250.68l-36.22,46.87-26.06-75.51s-9.62-8.17-16.04-1.44c-6.41,6.73,9.62,11.86,9.62,11.86,0,0-3.85,87.2,28.86,94.91,25.44,6,86.37-27.59,81.04-66.35-2.76-20.04-28.85-26.34-41.21-10.34Z"/><polygon class="cls-5_data-processing-1-76" points="351.85 211 349.61 223.93 337.96 224.78 345.05 204.09 351.85 211"/><path class="cls-5_data-processing-1-76" d="m340.46,191.88c4.32-3.56,10.88-1.23,12.32,4.18,1.58,5.93,2.66,14.6-4.21,15.31-10.52,1.08-12.36-12.49-12.36-12.49,0,0,.98-4.3,4.25-7Z"/><path class="cls-5_data-processing-1-76" d="m342.49,201.64s-1.09-2.72-3.25-.85c-2.16,1.87.73,4.88,2.41,4.25,1.68-.63.84-3.4.84-3.4Z"/><path class="cls-11_data-processing-1-76 targetColor" d="m306.97,231.05s28.05-15.57,53.02-6.26c45.44,16.95,42.95,47.41,11.03,134.71l-41.85.23-22.21-128.68Z" style="fill: rgb(104, 225, 253);"/><path class="cls-7_data-processing-1-76" d="m349.89,222.29s-2.69,6.64,1.95,25.98c4.65,19.34,28.72,84.11,28.72,84.11l-9.54,27.12h-15.22s-46.8-129.48-46.8-129.48c0,0,21.17-10.97,40.89-7.73Z"/><path class="cls-12_data-processing-1-76" d="m328.02,217.23c3.48-4.42,4.38-10.34,2.67-15.7-1.28-4.04-1.2-9.22,3.4-14.66,10.17-12.05,24.69-3.55,19.88,3.31-4.81,6.86-7.45,9.96-7.45,9.96,0,0,17.55,18.45,8.4,29.7-8.14,10-41.39,5.79-26.9-12.61Z"/><polygon class="cls-5_data-processing-1-76" points="268.61 398.33 290.53 442.52 297.67 441.11 284.03 390.69 268.61 398.33"/><path class="cls-11_data-processing-1-76 targetColor" d="m289.95,441.03s-1.47,6.39-6.27,8.38c-4.8,1.99-2.34,8.95,4.88,4.69,2.76-1.63,4.85-3.18,6.39-4.49,1.83-1.55,4.11-2.36,6.47-2.79.74-.14,1.41-.64,1.74-1.88.95-3.53-7.06-6.83-7.06-6.83l-6.16,2.92Z" style="fill: rgb(104, 225, 253);"/><polygon class="cls-5_data-processing-1-76" points="299.73 398.33 321.65 442.52 328.79 441.11 315.15 390.69 299.73 398.33"/><path class="cls-11_data-processing-1-76 targetColor" d="m321.07,441.03s-1.47,6.39-6.27,8.38c-4.8,1.99-2.34,8.95,4.88,4.69,2.76-1.63,4.85-3.18,6.39-4.49,1.83-1.55,4.11-2.36,6.47-2.79.74-.14,1.41-.64,1.74-1.88.95-3.53-7.06-6.83-7.06-6.83l-6.16,2.92Z" style="fill: rgb(104, 225, 253);"/><path class="cls-12_data-processing-1-76" d="m281.21,345.12s-32.76,11.71-28.43,32.98c4.33,21.28,19.72,54.68,19.72,54.68l66.51-4.03s-15.95-58.38,18.21-60.01l4.53-11.76-80.54-11.87Z"/><rect class="cls-13_data-processing-1-76" x="333.97" y="368.74" width="7.97" height="68.71"/><rect class="cls-4_data-processing-1-76" x="333.97" y="368.74" width="7.97" height="68.71"/><polygon class="cls-13_data-processing-1-76" points="334.73 437.46 306.21 459.96 369.71 459.96 342.71 437.46 334.73 437.46"/><polygon class="cls-7_data-processing-1-76" points="334.73 437.46 306.21 459.96 369.71 459.96 342.71 437.46 334.73 437.46"/><path class="cls-13_data-processing-1-76" d="m369.79,358.89c-7.43-1.88-12.71-8.41-12.6-16.07.44-31.92-2.83-107.25-42.9-114.51-50.99-9.23-67.93,34.6-38.13,128.68,0,0,2.37,15.49,10.06,20.89,7.7,5.4,97.14,16.48,103.4,2.03,3.7-8.54-4.8-17.21-19.82-21.02Z"/><path class="cls-5_data-processing-1-76" d="m387.45,243.57c10.7,13.51,26.93,33.41,25.36,66.45l44.01-50.12s7.21-17.69,13.1-19c5.9-1.31,3.84,19-4.96,24.24,0,0-19.28,70.75-55.31,72.06-29.53,1.07-50.3-53.86-43.82-88.27,1.93-10.25,15.14-13.53,21.61-5.36Z"/><path class="cls-7_data-processing-1-76" d="m387.45,243.57c10.7,13.51,26.93,33.41,25.36,66.45l44.01-50.12s7.21-17.69,13.1-19c5.9-1.31,3.84,19-4.96,24.24,0,0-19.28,70.75-55.31,72.06-29.53,1.07-50.3-53.86-43.82-88.27,1.93-10.25,15.14-13.53,21.61-5.36Z"/><path class="cls-7_data-processing-1-76" d="m284.47,230.41s-10.67,35.13,9.72,76.66c20.39,41.53,7.9,64.53,73.71,79.68,0,0-46.67,1.72-81.69-8.88,0,0-4.97-2.16-9.57-18.38,0,0-37.27-106.51,7.83-129.08Z"/></g><g id="panels_data-processing-1-76"><rect class="cls-8_data-processing-1-76" x="58.4" y="307.71" width="140.78" height="36.28"/><rect class="cls-8_data-processing-1-76" x="58.4" y="364.49" width="140.78" height="36.28"/></g></svg>