<svg id="_0230_designer" data-name="0230_designer" xmlns="http://www.w3.org/2000/svg" viewBox="0 0 500 500" data-imageid="designer-40" imageName="Diseñador" class="illustrations_image" style="width: 151px;"><defs><style>.cls-1_designer-40{fill:#ffbc0e;}.cls-2_designer-40{fill:#093f68;}.cls-3_designer-40{fill:#fff;}.cls-4_designer-40{fill:#dfeaef;}.cls-5_designer-40{fill:#725858;}.cls-6_designer-40{fill:#ffc9b0;}.cls-7_designer-40{fill:#68e1fd;}.cls-8_designer-40{fill:#f56132;}</style></defs><g id="device_designer-40"><polygon class="cls-1_designer-40" points="84.92 310.51 65.8 364.35 119.8 364.35 84.92 310.51"/><path class="cls-2_designer-40" d="M119.8,366.17h-54a1.82,1.82,0,0,1-1.71-2.43L83.2,309.9a1.83,1.83,0,0,1,1.5-1.2,1.79,1.79,0,0,1,1.74.82l34.88,53.84a1.81,1.81,0,0,1-1.52,2.81Zm-51.43-3.64h48.09L85.4,314.59Z"/><path class="cls-1_designer-40" d="M208.91,236.18H64.6a5.86,5.86,0,0,0-5.44,8l39,100.5H255.08L214.35,239.88A5.86,5.86,0,0,0,208.91,236.18Z"/><path class="cls-2_designer-40" d="M255.08,346.51H98.19a1.81,1.81,0,0,1-1.69-1.16l-39-100.5a7.67,7.67,0,0,1,7.13-10.49H208.91a7.65,7.65,0,0,1,7.13,4.85L256.77,344a1.81,1.81,0,0,1-1.69,2.48ZM99.44,342.88h153L212.65,240.54a4,4,0,0,0-3.74-2.54H64.6a4,4,0,0,0-3.75,5.52Z"/><polygon class="cls-3_designer-40" points="203.21 245.88 72.97 245.75 109.78 338.93 239.57 339.06 203.21 245.88"/><path class="cls-2_designer-40" d="M239.57,340.88h0l-129.79-.13a1.81,1.81,0,0,1-1.69-1.15L71.27,246.42A1.83,1.83,0,0,1,73,243.93h0l130.24.13a1.81,1.81,0,0,1,1.69,1.16l36.37,93.18a1.82,1.82,0,0,1-1.7,2.48ZM111,337.11l125.89.13L202,247.7l-126.32-.13Z"/><path class="cls-4_designer-40" d="M197.36,285.77a1.78,1.78,0,0,1-.86-.22l-46.94-25.38L116,285.4a1.82,1.82,0,1,1-2.19-2.9l34.47-25.93a1.83,1.83,0,0,1,2-.15l48,25.93a1.82,1.82,0,0,1-.87,3.42Z"/><path class="cls-4_designer-40" d="M118.42,316a1.81,1.81,0,0,1-1.72-1.23L98.27,260.42a1.82,1.82,0,1,1,3.44-1.17l18,53,37.14-1.37a1.82,1.82,0,0,1,.13,3.63L118.49,316Z"/><path class="cls-4_designer-40" d="M132.34,309.59a1.81,1.81,0,0,1-1.7-1.17l-8.45-22.31a1.82,1.82,0,0,1,1.06-2.34,1.83,1.83,0,0,1,2.35,1.05L134,307.13a1.82,1.82,0,0,1-1.06,2.35A1.8,1.8,0,0,1,132.34,309.59Z"/></g><g id="character_designer-40"><path class="cls-5_designer-40" d="M284.09,121.91a27.91,27.91,0,0,0-13.55.24,65.78,65.78,0,0,0-37.15,28.47,19,19,0,0,1,6.27-18.5,29.56,29.56,0,0,0-25,14.69c-4.19,7.4-5.93,20.33-.31,27.58,4.94,6.37,14,5.2,19.07,10.27,3.18,3.17,4.29,14.46,6,18.93,4.26,11.44,9.3,22.56,13.94,33.86l101-18.81s-1.69-25.1-5.51-45.63-18-46.25-42.13-36c-1.2-2.82-3.47-5-5.81-7A38.63,38.63,0,0,0,284.09,121.91Z"/><path class="cls-2_designer-40" d="M253.28,239.26a1.83,1.83,0,0,1-1.69-1.12c-1.59-3.89-3.23-7.75-4.87-11.62-3.09-7.26-6.28-14.76-9.09-22.3a55.29,55.29,0,0,1-1.71-6.72c-.9-4.16-2.13-9.86-3.83-11.55-2-2-4.92-2.95-8-3.93-3.84-1.23-8.21-2.62-11.22-6.51-5.93-7.65-4.53-21.32.16-29.6a31.23,31.23,0,0,1,26.61-15.6h0a1.82,1.82,0,0,1,1.16,3.21,17.16,17.16,0,0,0-6,11.71A67.83,67.83,0,0,1,270,120.4a29.9,29.9,0,0,1,14.44-.27A40.69,40.69,0,0,1,302,128.64a24.63,24.63,0,0,1,5.51,6.11c7.48-2.79,14.52-2.45,20.95,1,12.46,6.67,19.58,23.45,22.09,36.94,3.8,20.4,5.52,45.59,5.54,45.84a1.83,1.83,0,0,1-1.48,1.91l-101,18.8A1.84,1.84,0,0,1,253.28,239.26ZM235.1,134.37a27.66,27.66,0,0,0-18.9,13.33c-4.13,7.3-5.3,19.32-.45,25.58,2.33,3,5.79,4.11,9.46,5.28,3.35,1.07,6.81,2.17,9.45,4.81,2.46,2.45,3.66,8,4.81,13.36A54.73,54.73,0,0,0,241,203c2.78,7.46,6,14.93,9,22.15q2.19,5.13,4.33,10.29l97.95-18.24c-.44-5.86-2.16-26.58-5.37-43.81-2.24-12.07-8.89-28.33-20.22-34.39-5.87-3.14-12.39-3.22-19.4-.22a1.81,1.81,0,0,1-1.39,0,1.83,1.83,0,0,1-1-1c-1.07-2.52-3.19-4.55-5.32-6.37a37,37,0,0,0-15.93-7.71h0a26.23,26.23,0,0,0-12.66.2,64,64,0,0,0-36.11,27.68,1.81,1.81,0,0,1-3.32-.54A20.9,20.9,0,0,1,235.1,134.37Z"/><ellipse class="cls-6_designer-40" cx="242.14" cy="234.01" rx="14.28" ry="15.95" transform="translate(-38.74 48.27) rotate(-10.55)"/><path class="cls-2_designer-40" d="M242.7,251.73c-7.73,0-14.78-6.13-16.39-14.77h0c-1.79-9.63,3.85-18.79,12.57-20.42a15.29,15.29,0,0,1,12.22,3.1,19.11,19.11,0,0,1,4.58,24.56,15.27,15.27,0,0,1-10.29,7.28A14.48,14.48,0,0,1,242.7,251.73Zm-12.81-15.44c1.42,7.66,8.08,12.86,14.83,11.61a11.7,11.7,0,0,0,7.85-5.59,15.5,15.5,0,0,0-3.68-19.79,11.69,11.69,0,0,0-9.34-2.4c-6.75,1.26-11.09,8.51-9.66,16.17Z"/><path class="cls-6_designer-40" d="M300.72,276c30.8-5.73,51.29-48.87,45.65-79.18L339.56,201s-23.37-19.71-27.39-43.39c0,0-6.55,15.49-33.76,21.95-29.59,7-47.36,4-47.36,4l8.06,47.15C244.75,261,269.92,281.72,300.72,276Z"/><path class="cls-2_designer-40" d="M290.68,278.74a51.27,51.27,0,0,1-31.3-10.45C248,259.64,240.19,246.4,237.32,231l-8.06-47.17a1.8,1.8,0,0,1,.5-1.59,1.84,1.84,0,0,1,1.59-.51c.18,0,17.82,2.86,46.64-4,25.85-6.14,32.45-20.75,32.51-20.89a1.83,1.83,0,0,1,1.89-1.09,1.8,1.8,0,0,1,1.57,1.5c3.4,20,21.4,37.43,25.8,41.44l5.66-3.45a1.84,1.84,0,0,1,1.69-.11,1.81,1.81,0,0,1,1.05,1.33c2.83,15.24-.66,33.93-9.35,50-9.27,17.15-23,28.56-37.75,31.3h0A56.66,56.66,0,0,1,290.68,278.74Zm10-2.76h0Zm-67.47-90.36,7.65,44.74c2.7,14.49,10,26.94,20.68,35,10.91,8.3,24.69,11.42,38.81,8.79h0c13.64-2.53,26.48-13.27,35.22-29.45,7.81-14.44,11.24-31,9.39-45l-4.49,2.74a1.84,1.84,0,0,1-2.12-.16c-.92-.77-21.13-18-27-40-3.91,5.28-13.16,14.33-32.53,18.93C255.23,186.88,239.17,186.2,233.25,185.62Z"/><ellipse class="cls-2_designer-40" cx="286.78" cy="208.44" rx="5.17" ry="5.16" transform="translate(-33.31 56.01) rotate(-10.55)"/><circle class="cls-2_designer-40" cx="249.82" cy="213.22" r="5.17"/><path class="cls-2_designer-40" d="M270.41,230.78c-.26,0-.51,0-.75,0a3,3,0,0,1-2.29-1.3c-2.11-3.05.34-12.15,1.5-15.92a1.81,1.81,0,1,1,3.47,1.06c-1.63,5.36-2.55,11-2.08,12.55a23,23,0,0,0,7.29-1.47,1.82,1.82,0,1,1,1.28,3.4A28.1,28.1,0,0,1,270.41,230.78Zm-.05-3.39h0Z"/><path class="cls-2_designer-40" d="M278.4,192.12a3.64,3.64,0,0,1-.61-7.22l24.28-4.21a3.64,3.64,0,1,1,1.24,7.17L279,192.06A3.36,3.36,0,0,1,278.4,192.12Z"/><path class="cls-2_designer-40" d="M235.74,198.52a3.64,3.64,0,0,1-.42-7.25l24.48-2.88a3.64,3.64,0,0,1,.86,7.22l-24.48,2.89Z"/><path class="cls-6_designer-40" d="M336.05,202.73s11.68-11.77,21.12-1.17,6.28,32.26-17,30.45"/><path class="cls-2_designer-40" d="M342.91,233.94c-.92,0-1.88,0-2.88-.11a1.82,1.82,0,0,1,.28-3.63c8.9.69,15.43-2.22,18.4-8.2s1.73-14-2.89-19.24a10.24,10.24,0,0,0-7.4-3.81c-5.77-.17-11,5-11.08,5.06a1.82,1.82,0,0,1-2.58-2.56c.26-.26,6.44-6.3,13.74-6.13a13.66,13.66,0,0,1,10,5c5.66,6.35,7.08,15.92,3.44,23.26C360,227.59,355,233.94,342.91,233.94Z"/><path class="cls-2_designer-40" d="M279.24,221.59a7.11,7.11,0,0,1-7.06-6.28l-1.77-14.7a1.82,1.82,0,0,1,1.59-2l34.26-4.12a1.81,1.81,0,0,1,1.34.37,1.85,1.85,0,0,1,.69,1.22l1.77,14.7a7.12,7.12,0,0,1-6.23,7.92l-23.73,2.86h0A8.27,8.27,0,0,1,279.24,221.59Zm.65-1.86h0ZM274.24,202l1.55,12.9a3.49,3.49,0,0,0,3.88,3.05l23.73-2.86a3.5,3.5,0,0,0,2.33-1.31,3.45,3.45,0,0,0,.71-2.57l-1.55-12.9Z"/><path class="cls-2_designer-40" d="M236.69,226.71a7.13,7.13,0,0,1-7.07-6.27l-1.77-14.7a1.84,1.84,0,0,1,1.59-2l34.26-4.12a1.84,1.84,0,0,1,2,1.59l1.76,14.7a7.12,7.12,0,0,1-6.22,7.92l-23.73,2.86h0A8.08,8.08,0,0,1,236.69,226.71Zm.64-1.86h0Zm-5.65-17.74L233.23,220a3.48,3.48,0,0,0,3.88,3.05l23.73-2.86a3.49,3.49,0,0,0,3-3.88l-1.55-12.89Z"/><path class="cls-2_designer-40" d="M307.16,203.72a1.82,1.82,0,0,1-.22-3.62l23.22-2.79a1.82,1.82,0,1,1,.44,3.61l-23.22,2.79Z"/><path class="cls-2_designer-40" d="M277.67,249a36.41,36.41,0,0,1-10.85-1.74,1.82,1.82,0,1,1,1.08-3.48c11,3.44,20.87,1.3,29.3-6.35a44,44,0,0,0,9.63-12.91,1.82,1.82,0,1,1,3.32,1.48C310,226.22,299.65,249,277.67,249Z"/><line class="cls-6_designer-40" x1="273.17" y1="208.32" x2="264.84" y2="209.04"/><path class="cls-2_designer-40" d="M264.84,210.86a1.82,1.82,0,0,1-.16-3.63l8.33-.72a1.82,1.82,0,0,1,.32,3.62l-8.33.72Z"/><path class="cls-4_designer-40" d="M188.91,272.8a10.18,10.18,0,1,1,10.27-10.17A10.22,10.22,0,0,1,188.91,272.8Zm0-16.72a6.55,6.55,0,1,0,6.63,6.55A6.6,6.6,0,0,0,188.91,256.08Z"/><rect class="cls-2_designer-40" x="52.6" y="364.35" width="356.9" height="16.92" rx="3.53"/><path class="cls-2_designer-40" d="M403.07,383.09H59a8.25,8.25,0,0,1-8.25-8.24v-4.07A8.26,8.26,0,0,1,59,362.53h344a8.25,8.25,0,0,1,8.24,8.25v4.07A8.24,8.24,0,0,1,403.07,383.09ZM59,366.17a4.61,4.61,0,0,0-4.61,4.61v4.07A4.61,4.61,0,0,0,59,379.46h344a4.62,4.62,0,0,0,4.61-4.61v-4.07a4.62,4.62,0,0,0-4.61-4.61Z"/><path class="cls-2_designer-40" d="M330.35,383.53a1.81,1.81,0,0,1-1.82-1.81V305.05a1.82,1.82,0,1,1,3.63,0v76.67A1.81,1.81,0,0,1,330.35,383.53Z"/><polygon class="cls-2_designer-40" points="170.94 285.47 163.39 297.09 161.07 307.05 162.03 307.78 170.3 301.45 178.41 290.44 170.94 285.47"/><path class="cls-2_designer-40" d="M162,309.59a1.86,1.86,0,0,1-1.1-.36l-1-.72a1.82,1.82,0,0,1-.67-1.87l2.32-10a1.76,1.76,0,0,1,.25-.58l7.55-11.62A1.81,1.81,0,0,1,172,284l7.46,5a1.79,1.79,0,0,1,.79,1.19,1.85,1.85,0,0,1-.33,1.4l-8.1,11a2.11,2.11,0,0,1-.36.37l-8.28,6.32A1.8,1.8,0,0,1,162,309.59Zm3.06-11.78-1.52,6.5,5.42-4.14,6.82-9.27-4.35-2.9Z"/><path class="cls-6_designer-40" d="M204.34,285.15s.68-16.21-5.46-17.92-18.77-5.12-22.18,0-11.94,15.06-9.55,20.67,25.59,17.85,25.59,17.85l27.13,32.63,29.95-33.33Z"/><path class="cls-2_designer-40" d="M219.87,340.2h0a1.8,1.8,0,0,1-1.36-.66l-26.9-32.35c-4.61-2.45-23.64-12.82-26.1-18.58-2.37-5.58,3.39-13.56,7.61-19.39.8-1.11,1.53-2.13,2.11-3,4.19-6.29,17.69-2.54,24.18-.74s6.89,13.9,6.82,18.49l44.36,19.41a1.79,1.79,0,0,1,1,1.28,1.82,1.82,0,0,1-.42,1.6l-30,33.33A1.82,1.82,0,0,1,219.87,340.2Zm-36-73.86c-2.59,0-4.73.5-5.67,1.9-.6.9-1.36,2-2.19,3.1-3.28,4.55-8.77,12.16-7.2,15.85s16,12.34,24.77,17a1.81,1.81,0,0,1,.55.44l25.78,31,26.87-29.9-43.18-18.89a1.83,1.83,0,0,1-1.09-1.74c.26-6.13-.86-15.18-4.13-16.08C195.55,268.2,188.89,266.34,183.88,266.34Z"/><path class="cls-2_designer-40" d="M190.33,256.78l-17.28,25.85s2.76,4.61,7.14,4.35l17.17-26S193.28,255,190.33,256.78Z"/><path class="cls-2_designer-40" d="M179.83,288.81c-5.13,0-8.21-5-8.34-5.24a1.83,1.83,0,0,1,0-1.95l17.28-25.85a1.84,1.84,0,0,1,.57-.54c4.29-2.61,9,4,9.47,4.72a1.81,1.81,0,0,1,0,2L181.7,288a1.82,1.82,0,0,1-1.41.82Zm-4.56-6.22a6.87,6.87,0,0,0,4,2.54L195.14,261c-1.23-1.49-2.76-2.78-3.58-2.78h0Z"/><line class="cls-2_designer-40" x1="162.9" y1="305.05" x2="159.23" y2="310.51"/><path class="cls-2_designer-40" d="M159.23,312.32a1.79,1.79,0,0,1-1-.31,1.82,1.82,0,0,1-.5-2.52l3.67-5.46a1.82,1.82,0,0,1,3,2l-3.67,5.46A1.81,1.81,0,0,1,159.23,312.32Z"/><path class="cls-7_designer-40 targetColor" d="M273.17,279.86s2.88-13.31,9.34-17.23,45.69-9.51,53.54-2.8,8.54,17.11,8.54,17.11Z" style="fill: rgb(104, 225, 253);"/><path class="cls-2_designer-40" d="M273.17,281.68a1.81,1.81,0,0,1-1.39-.65,1.83,1.83,0,0,1-.39-1.56c.13-.57,3.13-14.12,10.17-18.4,6.83-4.15,47.11-9.95,55.68-2.62,8.33,7.14,9.13,17.91,9.16,18.37a1.81,1.81,0,0,1-.46,1.33,1.84,1.84,0,0,1-1.28.6l-71.42,2.92ZM320,258.54c-13.79,0-32.2,3-36.54,5.64-3.92,2.39-6.66,9.42-7.91,13.76l67-2.74c-.58-3.12-2.38-9.5-7.63-14C332.63,259.29,326.89,258.54,320,258.54Z"/><path class="cls-7_designer-40 targetColor" d="M376.17,381.72,357.29,279c-1-1.13-1.51-1.75-1.51-1.75a18.67,18.67,0,0,0-12.95-5.22H270.21c-2,0-9.29-.94-21,8.87-16.92,14.2-40.9,32-53.53,44.14l10.79,54.59c2.13.51,36.76-15.32,36.76-15.32l3.41,17.37Z" style="fill: rgb(104, 225, 253);"/><path class="cls-2_designer-40" d="M376.17,383.53H246.65a1.82,1.82,0,0,1-1.78-1.47l-3-15.1c-33.17,15.11-35.1,14.65-35.85,14.48a1.83,1.83,0,0,1-1.36-1.42L193.9,325.43a1.82,1.82,0,0,1,.53-1.67c7.95-7.61,20.48-17.58,32.59-27.21,7.23-5.74,14.7-11.69,21-17,11.43-9.59,18.91-9.37,21.73-9.3h73.05A20.49,20.49,0,0,1,357,276c.12.12.67.76,1.63,1.9a1.69,1.69,0,0,1,.4.84L378,381.39a1.83,1.83,0,0,1-.4,1.49A1.81,1.81,0,0,1,376.17,383.53Zm-128-3.63H374l-18.4-100-1.18-1.37a16.78,16.78,0,0,0-11.58-4.59H269.68c-2.43-.07-8.92-.25-19.29,8.45-6.37,5.35-13.86,11.31-21.11,17.07-11.68,9.29-23.76,18.89-31.62,26.3l10.24,51.81c4.95-1.61,20.63-8.43,34.59-14.81A1.81,1.81,0,0,1,245,364Z"/><path class="cls-2_designer-40" d="M311.52,282.16h65c12.55,0,21.63,10.18,20.26,22.73l-8.34,76.83H278l8.34-76.83C287.68,292.34,299,282.16,311.52,282.16Z"/><path class="cls-2_designer-40" d="M388.45,383.53H278a1.81,1.81,0,0,1-1.35-.6,1.83,1.83,0,0,1-.46-1.41l8.34-76.82c1.46-13.43,13.58-24.36,27-24.36h65a21.83,21.83,0,0,1,22.07,24.75l-8.34,76.82A1.82,1.82,0,0,1,388.45,383.53ZM280,379.9H386.82L395,304.7a18.71,18.71,0,0,0-4.5-14.71,18.43,18.43,0,0,0-14-6h-65c-11.63,0-22.13,9.47-23.39,21.11Z"/><path class="cls-8_designer-40" d="M321.47,282.16h65c12.56,0,21.63,10.18,20.27,22.73l-8.35,76.83H287.92l8.35-76.83C297.63,292.34,308.91,282.16,321.47,282.16Z"/><path class="cls-2_designer-40" d="M398.4,383.53H287.92a1.81,1.81,0,0,1-1.8-2l8.34-76.82c1.46-13.43,13.57-24.36,27-24.36h65a21.83,21.83,0,0,1,22.07,24.75l-8.34,76.82A1.82,1.82,0,0,1,398.4,383.53ZM290,379.9H396.77l8.17-75.2a18.64,18.64,0,0,0-4.5-14.71,18.42,18.42,0,0,0-14-6h-65c-11.64,0-22.13,9.47-23.4,21.11Z"/><path class="cls-6_designer-40" d="M195.69,325.08,119.8,334s-18-17.57-21.75-16.89S98.3,331,98.3,331s-13.48-9.13-15.87-1.28S80.56,352.11,84,356.55s17.26,6.17,39.92,4.86l80.45,6.4Z"/><path class="cls-2_designer-40" d="M204.34,369.63h-.14l-80.32-6.39c-23.56,1.36-37.46-.52-41.35-5.57s-4.32-20.33-1.84-28.51a5.93,5.93,0,0,1,3.73-4.07c3.3-1.17,7.81.5,11,2.12-.77-3.54-1.35-8,0-10.25a3.29,3.29,0,0,1,2.27-1.6c4-.72,15.66,9.92,22.73,16.77l75-8.85a1.81,1.81,0,0,1,2,1.45l8.65,42.73a1.8,1.8,0,0,1-.42,1.57A1.82,1.82,0,0,1,204.34,369.63Zm-80.45-10H124l78,6.21-7.84-38.73L120,335.83a1.77,1.77,0,0,1-1.48-.5c-7.76-7.57-17.44-15.8-20.06-16.36-.63,1.28.08,6.56,1.57,11.46a1.82,1.82,0,0,1-2.76,2c-3-2-8.87-4.93-11.65-4a2.29,2.29,0,0,0-1.46,1.71c-2.31,7.59-1.63,21.51,1.24,25.23,1.41,1.84,8,5.91,38.38,4.16Z"/><path class="cls-2_designer-40" d="M243.24,366.17a1.82,1.82,0,0,1-.8-3.45l26-12.83a1.82,1.82,0,0,1,1.62,3.26l-26,12.83A1.81,1.81,0,0,1,243.24,366.17Z"/><rect class="cls-7_designer-40 targetColor" x="119.8" y="331.98" width="12.54" height="28.75" style="fill: rgb(104, 225, 253);"/><path class="cls-2_designer-40" d="M132.34,362.55H119.8a1.81,1.81,0,0,1-1.82-1.82V332a1.82,1.82,0,0,1,1.82-1.82h12.54a1.83,1.83,0,0,1,1.82,1.82v28.75A1.82,1.82,0,0,1,132.34,362.55Zm-10.72-3.64h8.9V333.8h-8.9Z"/><circle class="cls-3_designer-40" cx="126.07" cy="345.97" r="6.91"/><path class="cls-2_designer-40" d="M126.07,354.7A8.73,8.73,0,1,1,134.8,346,8.74,8.74,0,0,1,126.07,354.7Zm0-13.82a5.09,5.09,0,1,0,5.09,5.09A5.09,5.09,0,0,0,126.07,340.88Z"/><path class="cls-2_designer-40" d="M221.21,320.92a15.14,15.14,0,0,1-3.23-.34,16.52,16.52,0,0,1-9.83-6.79,1.82,1.82,0,0,1,3.08-1.93A13,13,0,0,0,218.8,317c3.69.79,7.78-.29,12.18-3.2,3.59-2.38,5.72-5.29,6.32-8.64,1.08-6-3-11.66-3-11.71a1.82,1.82,0,0,1,2.93-2.15c.21.28,5,6.92,3.67,14.47-.77,4.38-3.43,8.1-7.89,11.06C228.91,319.56,225,320.92,221.21,320.92Z"/><path class="cls-2_designer-40" d="M219.87,374.63a1.81,1.81,0,0,1-1.73-1.25l-17.59-53.71a1.82,1.82,0,1,1,3.45-1.14l17.59,53.72a1.8,1.8,0,0,1-1.16,2.29A1.87,1.87,0,0,1,219.87,374.63Z"/></g><g id="lines_designer-40"><path class="cls-4_designer-40" d="M178.41,202.33H81.51a1.82,1.82,0,0,1-1.82-1.82V121.2a1.81,1.81,0,0,1,1.82-1.82h96.9a1.82,1.82,0,0,1,1.82,1.82v79.31A1.83,1.83,0,0,1,178.41,202.33Zm-95.08-3.64h93.26V123H83.33Z"/><path class="cls-4_designer-40" d="M142.65,178.53h-40a1.82,1.82,0,0,1-1.81-1.82v-40a1.82,1.82,0,0,1,1.81-1.82h40a1.83,1.83,0,0,1,1.82,1.82v40A1.83,1.83,0,0,1,142.65,178.53Zm-38.18-3.64h36.36V138.53H104.47Z"/><path class="cls-4_designer-40" d="M142.14,190.3A23.86,23.86,0,1,1,166,166.44,23.89,23.89,0,0,1,142.14,190.3Zm0-44.08a20.22,20.22,0,1,0,20.22,20.22A20.24,20.24,0,0,0,142.14,146.22Z"/><path class="cls-4_designer-40" d="M447.4,255.83H385a1.81,1.81,0,0,1-1.82-1.81V172.43a1.81,1.81,0,0,1,1.82-1.82H447.4a1.81,1.81,0,0,1,1.82,1.82V254A1.81,1.81,0,0,1,447.4,255.83Zm-60.63-3.63h58.81v-78H386.77Z"/><path class="cls-4_designer-40" d="M435,245.5H396.93a1.82,1.82,0,0,1-1.69-2.5l19.05-46.56a1.81,1.81,0,0,1,3.36,0L436.7,243a1.82,1.82,0,0,1-1.68,2.5Zm-35.38-3.63h32.67L416,201.93Z"/><path class="cls-4_designer-40" d="M429.9,210.86h-33a1.81,1.81,0,0,1-1.82-1.82V181.92a1.81,1.81,0,0,1,1.82-1.81h33a1.81,1.81,0,0,1,1.81,1.81V209A1.81,1.81,0,0,1,429.9,210.86Zm-31.15-3.64h29.33V183.74H398.75Z"/><path class="cls-4_designer-40" d="M404.13,149.79H364.72A1.82,1.82,0,0,1,362.9,148V118.28a1.82,1.82,0,0,1,1.82-1.81h39.41a1.81,1.81,0,0,1,1.82,1.81V148A1.81,1.81,0,0,1,404.13,149.79Zm-37.59-3.64h35.77V120.1H366.54Z"/><path class="cls-4_designer-40" d="M376.17,138.53a1.82,1.82,0,0,1-.73-3.49l8.26-3.58a1.78,1.78,0,0,1,1.73.16l3.9,2.59,6.11-8.77A1.81,1.81,0,0,1,398,125a1.82,1.82,0,0,1,.45,2.53l-7.13,10.24a1.82,1.82,0,0,1-2.5.47l-4.55-3-7.35,3.19A1.82,1.82,0,0,1,376.17,138.53Z"/></g></svg>